<?xml version="1.0" encoding="UTF-8"?>
<svg width="700pt" height="700pt" fill="#fff" version="1.1" viewBox="0 0 700 700" xmlns="http://www.w3.org/2000/svg" xmlns:xlink="http://www.w3.org/1999/xlink">
 <defs>
  <symbol id="v" overflow="visible">
   <path d="m6.7188-0.40625c-0.34375 0.1875-0.70312 0.32422-1.0781 0.40625-0.375 0.09375-0.76562 0.14062-1.1719 0.14062-1.2188 0-2.1875-0.33594-2.9062-1.0156-0.71094-0.6875-1.0625-1.6133-1.0625-2.7812 0-1.1641 0.35156-2.0859 1.0625-2.7656 0.71875-0.67578 1.6875-1.0156 2.9062-1.0156 0.40625 0 0.79688 0.046875 1.1719 0.14062 0.375 0.085937 0.73438 0.21484 1.0781 0.39062v1.5156c-0.34375-0.23828-0.6875-0.41016-1.0312-0.51562-0.34375-0.11328-0.70312-0.17188-1.0781-0.17188-0.66797 0-1.1953 0.21875-1.5781 0.65625-0.38672 0.42969-0.57812 1.0156-0.57812 1.7656 0 0.76172 0.19141 1.3594 0.57812 1.7969 0.38281 0.42969 0.91016 0.64062 1.5781 0.64062 0.375 0 0.73438-0.054688 1.0781-0.17188 0.34375-0.11328 0.6875-0.28906 1.0312-0.53125z"/>
  </symbol>
  <symbol id="c" overflow="visible">
   <path d="m4.9219-3.9844c-0.15625-0.070313-0.3125-0.125-0.46875-0.15625-0.14844-0.039063-0.29688-0.0625-0.45312-0.0625-0.44922 0-0.79688 0.14844-1.0469 0.4375-0.24219 0.29297-0.35938 0.70312-0.35938 1.2344v2.5312h-1.75v-5.4844h1.75v0.90625c0.22656-0.36328 0.48828-0.62891 0.78125-0.79688 0.28906-0.16406 0.64062-0.25 1.0469-0.25 0.0625 0 0.125 0.007812 0.1875 0.015625 0.070313 0 0.17188 0.011719 0.29688 0.03125z"/>
  </symbol>
  <symbol id="a" overflow="visible">
   <path d="m6.3125-2.75v0.48438h-4.0938c0.039062 0.41797 0.1875 0.73047 0.4375 0.9375 0.25781 0.19922 0.61719 0.29688 1.0781 0.29688 0.36328 0 0.73828-0.050781 1.125-0.15625 0.39453-0.11328 0.79688-0.28125 1.2031-0.5v1.3594c-0.41797 0.15625-0.83594 0.27344-1.25 0.34375-0.41797 0.082031-0.82812 0.125-1.2344 0.125-1 0-1.7773-0.25-2.3281-0.75-0.54297-0.50781-0.8125-1.2188-0.8125-2.125 0-0.89453 0.26562-1.5977 0.79688-2.1094 0.53906-0.51953 1.2852-0.78125 2.2344-0.78125 0.86328 0 1.5508 0.26172 2.0625 0.78125 0.51953 0.52344 0.78125 1.2188 0.78125 2.0938zm-1.7969-0.59375c0-0.33203-0.10156-0.59766-0.29688-0.79688-0.1875-0.20703-0.4375-0.3125-0.75-0.3125-0.34375 0-0.625 0.10156-0.84375 0.29688-0.21094 0.1875-0.33984 0.46094-0.39062 0.8125z"/>
  </symbol>
  <symbol id="i" overflow="visible">
   <path d="m3.2969-2.4688c-0.36719 0-0.64062 0.0625-0.82812 0.1875-0.17969 0.125-0.26562 0.30859-0.26562 0.54688 0 0.21875 0.070313 0.39062 0.21875 0.51562 0.14453 0.125 0.35156 0.1875 0.625 0.1875 0.32031 0 0.59766-0.11328 0.82812-0.34375 0.22656-0.23828 0.34375-0.53516 0.34375-0.89062v-0.20312zm2.6875-0.65625v3.125h-1.7656v-0.8125c-0.24219 0.33594-0.50781 0.57812-0.79688 0.73438-0.29297 0.14453-0.65234 0.21875-1.0781 0.21875-0.5625 0-1.0234-0.16406-1.375-0.5-0.35547-0.33203-0.53125-0.75781-0.53125-1.2812 0-0.64453 0.21875-1.1172 0.65625-1.4219 0.44531-0.30078 1.1406-0.45312 2.0781-0.45312h1.0469v-0.14062c0-0.26953-0.10938-0.46875-0.32812-0.59375-0.21875-0.13281-0.5625-0.20312-1.0312-0.20312-0.375 0-0.72656 0.039063-1.0469 0.10938-0.32422 0.074219-0.625 0.1875-0.90625 0.34375v-1.3438c0.375-0.082031 0.75-0.14844 1.125-0.20312 0.38281-0.050781 0.76562-0.078125 1.1406-0.078125 0.98828 0 1.7031 0.19922 2.1406 0.59375 0.44531 0.38672 0.67188 1.0234 0.67188 1.9062z"/>
  </symbol>
  <symbol id="b" overflow="visible">
   <path d="m2.75-7.0469v1.5625h1.8125v1.25h-1.8125v2.3281c0 0.26172 0.050781 0.4375 0.15625 0.53125 0.10156 0.085938 0.30469 0.125 0.60938 0.125h0.89062v1.25h-1.5c-0.6875 0-1.1797-0.14062-1.4688-0.42188-0.29297-0.28906-0.4375-0.78516-0.4375-1.4844v-2.3281h-0.875v-1.25h0.875v-1.5625z"/>
  </symbol>
  <symbol id="l" overflow="visible">
   <path d="m4.5781-4.6875v-2.9375h1.7656v7.625h-1.7656v-0.79688c-0.24219 0.32422-0.50781 0.5625-0.79688 0.71875-0.29297 0.14453-0.63281 0.21875-1.0156 0.21875-0.67969 0-1.2344-0.26562-1.6719-0.79688-0.42969-0.53906-0.64062-1.2344-0.64062-2.0781s0.21094-1.5352 0.64062-2.0781c0.4375-0.53906 0.99219-0.8125 1.6719-0.8125 0.375 0 0.70703 0.078125 1 0.23438 0.30078 0.15625 0.57031 0.39062 0.8125 0.70312zm-1.1562 3.5625c0.375 0 0.66016-0.13281 0.85938-0.40625 0.19531-0.28125 0.29688-0.67969 0.29688-1.2031 0-0.51953-0.10156-0.91406-0.29688-1.1875-0.19922-0.28125-0.48438-0.42188-0.85938-0.42188s-0.66406 0.14062-0.85938 0.42188c-0.19922 0.27344-0.29688 0.66797-0.29688 1.1875 0 0.52344 0.097656 0.92188 0.29688 1.2031 0.19531 0.27344 0.48438 0.40625 0.85938 0.40625z"/>
  </symbol>
  <symbol id="h" overflow="visible">
   <path d="m3.7656-1.125c0.375 0 0.66016-0.13281 0.85938-0.40625 0.19531-0.28125 0.29688-0.67969 0.29688-1.2031 0-0.51953-0.10156-0.91406-0.29688-1.1875-0.19922-0.28125-0.48438-0.42188-0.85938-0.42188s-0.66797 0.14062-0.875 0.42188c-0.19922 0.27344-0.29688 0.66797-0.29688 1.1875 0 0.52344 0.097656 0.92188 0.29688 1.2031 0.20703 0.27344 0.5 0.40625 0.875 0.40625zm-1.1719-3.5625c0.23828-0.3125 0.50391-0.54688 0.79688-0.70312 0.30078-0.15625 0.64062-0.23438 1.0156-0.23438 0.67578 0 1.2344 0.27344 1.6719 0.8125 0.4375 0.54297 0.65625 1.2344 0.65625 2.0781s-0.21875 1.5391-0.65625 2.0781c-0.4375 0.53125-0.99609 0.79688-1.6719 0.79688-0.375 0-0.71484-0.074219-1.0156-0.21875-0.29297-0.15625-0.55859-0.39453-0.79688-0.71875v0.79688h-1.75v-7.625h1.75z"/>
  </symbol>
  <symbol id="g" overflow="visible">
   <path d="m0.125-5.4844h1.75l1.4688 3.7188 1.2656-3.7188h1.75l-2.3125 6c-0.23047 0.61328-0.5 1.0391-0.8125 1.2812-0.30469 0.25-0.71094 0.375-1.2188 0.375h-1.0156v-1.1562h0.54688c0.30078 0 0.51953-0.046875 0.65625-0.14062 0.13281-0.09375 0.23828-0.26562 0.3125-0.51562l0.046875-0.15625z"/>
  </symbol>
  <symbol id="f" overflow="visible">
   <path d="m5.125-5.3125v1.3281c-0.375-0.15625-0.74219-0.26953-1.0938-0.34375-0.34375-0.082031-0.67188-0.125-0.98438-0.125-0.33594 0-0.58594 0.042969-0.75 0.125-0.15625 0.085937-0.23438 0.21484-0.23438 0.39062 0 0.13672 0.0625 0.24609 0.1875 0.32812 0.125 0.074219 0.34375 0.125 0.65625 0.15625l0.3125 0.046875c0.89453 0.11719 1.5 0.30469 1.8125 0.5625 0.3125 0.26172 0.46875 0.67188 0.46875 1.2344 0 0.58594-0.21875 1.0234-0.65625 1.3125-0.42969 0.29297-1.0703 0.4375-1.9219 0.4375-0.36719 0-0.74219-0.03125-1.125-0.09375-0.38672-0.050781-0.78125-0.13281-1.1875-0.25v-1.3281c0.34375 0.16797 0.69531 0.29297 1.0625 0.375 0.375 0.085938 0.75 0.125 1.125 0.125 0.34375 0 0.59766-0.046875 0.76562-0.14062 0.17578-0.09375 0.26562-0.23438 0.26562-0.42188 0-0.15625-0.0625-0.26953-0.1875-0.34375-0.11719-0.070312-0.35156-0.12891-0.70312-0.17188l-0.3125-0.046875c-0.78125-0.09375-1.3281-0.26953-1.6406-0.53125-0.3125-0.26953-0.46875-0.67578-0.46875-1.2188 0-0.58203 0.19531-1.0156 0.59375-1.2969 0.40625-0.28125 1.0195-0.42188 1.8438-0.42188 0.32031 0 0.66016 0.027344 1.0156 0.078125 0.35156 0.054687 0.73828 0.13281 1.1562 0.23438z"/>
  </symbol>
  <symbol id="k" overflow="visible">
   <path d="m5.9219-4.5781c0.22656-0.33203 0.49219-0.58594 0.79688-0.76562 0.30078-0.1875 0.63281-0.28125 1-0.28125 0.63281 0 1.1133 0.19922 1.4375 0.59375 0.33203 0.38672 0.5 0.94922 0.5 1.6875v3.3438h-1.7656v-2.8594c0.007813-0.039063 0.015625-0.082031 0.015625-0.125v-0.20312c0-0.38281-0.058594-0.66406-0.17188-0.84375-0.11719-0.17578-0.29688-0.26562-0.54688-0.26562-0.33594 0-0.59375 0.14062-0.78125 0.42188-0.17969 0.27344-0.27344 0.66797-0.28125 1.1875v2.6875h-1.7656v-2.8594c0-0.60156-0.054687-0.99219-0.15625-1.1719-0.10547-0.17578-0.28906-0.26562-0.54688-0.26562-0.34375 0-0.60938 0.14062-0.79688 0.42188-0.17969 0.27344-0.26562 0.66406-0.26562 1.1719v2.7031h-1.7656v-5.4844h1.7656v0.79688c0.21875-0.30078 0.46094-0.53125 0.73438-0.6875 0.28125-0.16406 0.59375-0.25 0.9375-0.25 0.375 0 0.70703 0.09375 1 0.28125 0.28906 0.1875 0.50781 0.44531 0.65625 0.76562z"/>
  </symbol>
  <symbol id="e" overflow="visible">
   <path d="m0.84375-5.4844h1.75v5.4844h-1.75zm0-2.1406h1.75v1.4375h-1.75z"/>
  </symbol>
  <symbol id="j" overflow="visible">
   <path d="m6.3594-3.3438v3.3438h-1.7656v-2.5625c0-0.46875-0.011719-0.78906-0.03125-0.96875-0.023438-0.1875-0.058594-0.32031-0.10938-0.40625-0.074219-0.11328-0.16797-0.20312-0.28125-0.26562-0.11719-0.0625-0.25-0.09375-0.40625-0.09375-0.36719 0-0.65234 0.14062-0.85938 0.42188-0.21094 0.28125-0.3125 0.67188-0.3125 1.1719v2.7031h-1.75v-5.4844h1.75v0.79688c0.26953-0.3125 0.55078-0.54688 0.84375-0.70312 0.30078-0.15625 0.62891-0.23438 0.98438-0.23438 0.63281 0 1.1133 0.19922 1.4375 0.59375 0.33203 0.38672 0.5 0.94922 0.5 1.6875z"/>
  </symbol>
  <symbol id="u" overflow="visible">
   <path d="m0.15625-5.4844h1.75l1.3594 3.7969 1.375-3.7969h1.75l-2.1562 5.4844h-1.9219z"/>
  </symbol>
  <symbol id="t" overflow="visible">
   <path d="m0.84375-7.625h1.75v7.625h-1.75z"/>
  </symbol>
  <symbol id="s" overflow="visible">
   <path d="m4.4531-7.625v1.1562h-0.96875c-0.25 0-0.42969 0.046875-0.53125 0.14062-0.09375 0.085937-0.14062 0.23438-0.14062 0.45312v0.39062h1.5v1.25h-1.5v4.2344h-1.75v-4.2344h-0.875v-1.25h0.875v-0.39062c0-0.59375 0.16406-1.0312 0.5-1.3125 0.33203-0.28906 0.84766-0.4375 1.5469-0.4375z"/>
  </symbol>
  <symbol id="d" overflow="visible">
   <path d="m3.4531-4.3594c-0.38672 0-0.68359 0.14062-0.89062 0.42188-0.19922 0.27344-0.29688 0.67188-0.29688 1.2031 0 0.52344 0.097656 0.92188 0.29688 1.2031 0.20703 0.28125 0.50391 0.42188 0.89062 0.42188 0.38281 0 0.67578-0.14062 0.875-0.42188 0.20703-0.28125 0.3125-0.67969 0.3125-1.2031 0-0.53125-0.10547-0.92969-0.3125-1.2031-0.19922-0.28125-0.49219-0.42188-0.875-0.42188zm0-1.2656c0.94531 0 1.6797 0.25781 2.2031 0.76562 0.53125 0.51172 0.79688 1.2188 0.79688 2.125 0 0.89844-0.26562 1.6016-0.79688 2.1094-0.52344 0.51172-1.2578 0.76562-2.2031 0.76562-0.94922 0-1.6875-0.25391-2.2188-0.76562-0.53125-0.50781-0.79688-1.2109-0.79688-2.1094 0-0.90625 0.26562-1.6133 0.79688-2.125 0.53125-0.50781 1.2695-0.76562 2.2188-0.76562z"/>
  </symbol>
  <symbol id="r" overflow="visible">
   <path d="m6.3594-3.3438v3.3438h-1.7656v-2.5469c0-0.47656-0.011719-0.80469-0.03125-0.98438-0.023438-0.1875-0.058594-0.32031-0.10938-0.40625-0.074219-0.11328-0.16797-0.20312-0.28125-0.26562-0.11719-0.0625-0.25-0.09375-0.40625-0.09375-0.36719 0-0.65234 0.14062-0.85938 0.42188-0.21094 0.28125-0.3125 0.67188-0.3125 1.1719v2.7031h-1.75v-7.625h1.75v2.9375c0.26953-0.3125 0.55078-0.54688 0.84375-0.70312 0.30078-0.15625 0.62891-0.23438 0.98438-0.23438 0.63281 0 1.1133 0.19922 1.4375 0.59375 0.33203 0.38672 0.5 0.94922 0.5 1.6875z"/>
  </symbol>
  <symbol id="q" overflow="visible">
   <path d="m0.92188-7.3125h2.1094l2.6562 5.0156v-5.0156h1.7812v7.3125h-2.0938l-2.6719-5.0156v5.0156h-1.7812z"/>
  </symbol>
  <symbol id="p" overflow="visible">
   <path d="m0.78125-2.1406v-3.3438h1.7656v0.54688c0 0.30469-0.007813 0.67969-0.015625 1.125v0.89062c0 0.4375 0.007812 0.75781 0.03125 0.95312 0.03125 0.19922 0.070312 0.33984 0.125 0.42188 0.070312 0.11719 0.16406 0.20312 0.28125 0.26562 0.11328 0.0625 0.25 0.09375 0.40625 0.09375 0.36328 0 0.64844-0.14062 0.85938-0.42188 0.20703-0.28125 0.3125-0.67188 0.3125-1.1719v-2.7031h1.75v5.4844h-1.75v-0.79688c-0.26172 0.32422-0.54297 0.5625-0.84375 0.71875-0.29297 0.14453-0.61719 0.21875-0.96875 0.21875-0.63672 0-1.1211-0.19141-1.4531-0.57812-0.33594-0.39453-0.5-0.96094-0.5-1.7031z"/>
  </symbol>
  <symbol id="o" overflow="visible">
   <path d="m0.92188-7.3125h3.125c0.9375 0 1.6484 0.21094 2.1406 0.625 0.5 0.40625 0.75 0.99609 0.75 1.7656 0 0.76172-0.25 1.3516-0.75 1.7656-0.49219 0.41797-1.2031 0.625-2.1406 0.625h-1.2344v2.5312h-1.8906zm1.8906 1.3594v2.0469h1.0312c0.375 0 0.66016-0.085938 0.85938-0.26562 0.19531-0.17578 0.29688-0.42578 0.29688-0.75 0-0.33203-0.10156-0.58594-0.29688-0.76562-0.19922-0.17578-0.48438-0.26562-0.85938-0.26562z"/>
  </symbol>
  <symbol id="n" overflow="visible">
   <path d="m0.84375-5.4844h1.75v5.3906c0 0.72656-0.17969 1.2852-0.53125 1.6719-0.35547 0.39453-0.86719 0.59375-1.5312 0.59375h-0.85938v-1.1562h0.29688c0.33203 0 0.5625-0.078125 0.6875-0.23438 0.125-0.14844 0.1875-0.4375 0.1875-0.875zm0-2.1406h1.75v1.4375h-1.75z"/>
  </symbol>
  <symbol id="m" overflow="visible">
   <path d="m5.2812-5.3125v1.4219c-0.24219-0.15625-0.48047-0.26953-0.71875-0.34375-0.24219-0.082031-0.49219-0.125-0.75-0.125-0.49219 0-0.87109 0.14844-1.1406 0.4375-0.27344 0.28125-0.40625 0.67969-0.40625 1.1875 0 0.51172 0.13281 0.91406 0.40625 1.2031 0.26953 0.28125 0.64844 0.42188 1.1406 0.42188 0.26953 0 0.53125-0.039063 0.78125-0.125 0.25-0.082031 0.47656-0.20312 0.6875-0.35938v1.4375c-0.28125 0.09375-0.5625 0.16406-0.84375 0.21875-0.28125 0.050781-0.5625 0.078125-0.84375 0.078125-0.99219 0-1.7656-0.25-2.3281-0.75-0.55469-0.50781-0.82812-1.2188-0.82812-2.125s0.27344-1.6133 0.82812-2.125c0.5625-0.50781 1.3359-0.76562 2.3281-0.76562 0.28125 0 0.5625 0.027344 0.84375 0.078125 0.28125 0.054687 0.5625 0.13281 0.84375 0.23438z"/>
  </symbol>
 </defs>
 <g>
  <path d="m317.89 0c-140.5 16.059-248.89 134.48-248.89 279 0 156.56 126.45 281 281 281 152.54 0 276.99-120.43 281-272.98-32.113 86.309-114.41 146.52-212.76 146.52-126.45 0-228.82-102.37-228.82-228.82 0-90.324 52.188-168.6 128.46-204.73z" fill-rule="evenodd"/>
  <use x="68.996094" y="590.109375" xlink:href="#v"/>
  <use x="76.363281" y="590.109375" xlink:href="#c"/>
  <use x="81.3125" y="590.109375" xlink:href="#a"/>
  <use x="88.117188" y="590.109375" xlink:href="#i"/>
  <use x="94.890625" y="590.109375" xlink:href="#b"/>
  <use x="99.6875" y="590.109375" xlink:href="#a"/>
  <use x="106.492188" y="590.109375" xlink:href="#l"/>
  <use x="117.171875" y="590.109375" xlink:href="#h"/>
  <use x="124.355469" y="590.109375" xlink:href="#g"/>
  <use x="134.390625" y="590.109375" xlink:href="#g"/>
  <use x="140.933594" y="590.109375" xlink:href="#i"/>
  <use x="147.707031" y="590.109375" xlink:href="#f"/>
  <use x="153.679688" y="590.109375" xlink:href="#k"/>
  <use x="164.136719" y="590.109375" xlink:href="#e"/>
  <use x="167.574219" y="590.109375" xlink:href="#j"/>
  <use x="174.71875" y="590.109375" xlink:href="#u"/>
  <use x="181.261719" y="590.109375" xlink:href="#e"/>
  <use x="184.703125" y="590.109375" xlink:href="#f"/>
  <use x="190.675781" y="590.109375" xlink:href="#e"/>
  <use x="194.117188" y="590.109375" xlink:href="#h"/>
  <use x="201.300781" y="590.109375" xlink:href="#t"/>
  <use x="204.738281" y="590.109375" xlink:href="#a"/>
  <use x="68.996094" y="600.144531" xlink:href="#s"/>
  <use x="73.363281" y="600.144531" xlink:href="#c"/>
  <use x="78.3125" y="600.144531" xlink:href="#d"/>
  <use x="85.207031" y="600.144531" xlink:href="#k"/>
  <use x="99.15625" y="600.144531" xlink:href="#b"/>
  <use x="103.957031" y="600.144531" xlink:href="#r"/>
  <use x="111.101563" y="600.144531" xlink:href="#a"/>
  <use x="121.398438" y="600.144531" xlink:href="#q"/>
  <use x="129.800781" y="600.144531" xlink:href="#d"/>
  <use x="136.695312" y="600.144531" xlink:href="#p"/>
  <use x="143.839844" y="600.144531" xlink:href="#j"/>
  <use x="154.476562" y="600.144531" xlink:href="#o"/>
  <use x="161.832031" y="600.144531" xlink:href="#c"/>
  <use x="166.78125" y="600.144531" xlink:href="#d"/>
  <use x="173.675781" y="600.144531" xlink:href="#n"/>
  <use x="177.117188" y="600.144531" xlink:href="#a"/>
  <use x="183.921875" y="600.144531" xlink:href="#m"/>
  <use x="189.871094" y="600.144531" xlink:href="#b"/>
 </g>
</svg>
